<svg width="25" height="24" viewBox="0 0 25 24" fill="none" xmlns="http://www.w3.org/2000/svg">
<circle cx="13.3779" cy="8.30373" r="1.056" stroke="#342E34" stroke-width="1.056"/>
<path d="M5.1194 11.3137C5.08177 10.8457 5.26866 10.3876 5.62295 10.0796L12.4082 4.1793C12.9645 3.69558 13.7922 3.69558 14.3484 4.1793L21.1337 10.0796C21.488 10.3876 21.6749 10.8457 21.6373 11.3137L21.063 18.4546C21.0012 19.2227 20.3599 19.8145 19.5894 19.8145H7.16732C6.39677 19.8145 5.75544 19.2227 5.69367 18.4546L5.1194 11.3137Z" stroke="#342E34" stroke-width="1.2672"/>
<line x1="8.30157" y1="19.8934" x2="8.30157" y2="21.9257" stroke="#342E34" stroke-width="1.2672" stroke-linecap="round"/>
<line x1="18.1063" y1="19.8934" x2="18.1063" y2="21.9257" stroke="#342E34" stroke-width="1.2672" stroke-linecap="round"/>
<path d="M15.8461 19.2622V14.7751C15.8461 13.6087 14.9005 12.6631 13.7341 12.6631H13.0554C11.8889 12.6631 10.9434 13.6087 10.9434 14.7751V19.2622" stroke="#342E34" stroke-width="1.2672"/>
</svg>
