<svg width="25" height="24" viewBox="0 0 25 24" fill="none" xmlns="http://www.w3.org/2000/svg">
<path d="M12.3232 20.3493C17.2808 20.3493 21.2998 16.3527 21.2998 11.4227C21.2998 6.49267 17.2808 2.49609 12.3232 2.49609C7.36561 2.49609 3.34668 6.49267 3.34668 11.4227C3.34668 16.3527 7.36561 20.3493 12.3232 20.3493Z" stroke="#342E34" stroke-width="1.2672" stroke-linecap="round" stroke-linejoin="round"/>
<path d="M4.03906 14.8585H6.45582C7.09679 14.8585 7.7115 14.6053 8.16473 14.1546C8.61796 13.7039 8.87258 13.0926 8.87258 12.4552V10.3952C8.87258 9.7578 9.1272 9.1465 9.58043 8.6958C10.0337 8.24509 10.6484 7.99188 11.2893 7.99188C11.9303 7.99188 12.545 7.73868 12.9982 7.28797C13.4515 6.83726 13.7061 6.22597 13.7061 5.58857V2.59473" stroke="#342E34" stroke-width="1.2672" stroke-linecap="round" stroke-linejoin="round"/>
<path d="M21.2967 11.2827C20.6053 10.9259 19.8384 10.7377 19.0595 10.7334H16.1179C15.477 10.7334 14.8623 10.9866 14.409 11.4373C13.9558 11.888 13.7012 12.4993 13.7012 13.1367C13.7012 13.7741 13.9558 14.3854 14.409 14.8361C14.8623 15.2868 15.477 15.54 16.1179 15.54C16.5758 15.54 17.0148 15.7209 17.3386 16.0428C17.6623 16.3648 17.8442 16.8014 17.8442 17.2567V18.4515" stroke="#342E34" stroke-width="1.2672" stroke-linecap="round" stroke-linejoin="round"/>
<path d="M11.765 19.7887C11.9164 19.449 11.9398 19.0374 11.7646 18.6727C11.5895 18.3081 11.3958 17.787 10.9967 17.611C10.5975 17.435 10.1545 17.4011 9.76516 17.5169C9.37581 17.6326 9.07199 17.8885 8.92052 18.2282C8.81233 18.4708 8.59532 18.6535 8.31721 18.7362C8.0391 18.8189 7.72269 18.7947 7.43757 18.669L6.68936 18.339" stroke="#342E34" stroke-width="1.2672" stroke-linecap="round" stroke-linejoin="round"/>
</svg>
